{"title":"One Piece - 631 [HD 720p] [ENG SUBBED] [GWC].mkv","uid":9554742,"size":80599800,"categoryP":"video","categoryS":"tv_shows","magnet":"?xt=urn:btih:502a2ebc97cafc1dc930c5820c10c5537748990a&amp;dn=One+Piece+-+631+%5BHD+720p%5D+%5BENG+SUBBED%5D+%5BGWC%5D.mkv&amp;tr=udp%3A%2F%2Ftracker.openbittorrent.com%3A80&amp;tr=udp%3A%2F%2Fopen.demonii.com%3A1337&amp;tr=udp%3A%2F%2Ftracker.coppersurfer.tk%3A6969&amp;tr=udp%3A%2F%2Fexodus.desync.com%3A6969","seeders":2,"leechers":0,"uploader":"canc232","files":1,"time":1391339850,"description":"One Piece - 631 [HD 720p] [ENG SUBBED] [GWC]\n\n\nTHUMBNAIL IMAGE : &lt;a href=&quot;\nhttp://img713.imageshack.us/img713/6312/0ibx.jpg&quot; rel=&quot;nofollow&quot; target=&quot;_NEW&quot;&gt;\nhttp://img713.imageshack.us/img713/6312/0ibx.jpg&lt;/a&gt;\n\n\nMEDIA INFO :\nGeneral \nFormat : Matroska \nFile size : 76.9 MiB \nDuration : 20mn 44s \nOverall bit rate mode : Variable \nOverall bit rate : 518 Kbps  \nWriting application : mkvmerge v6.6.0 ('The Edge Of The In Between')\n\nVideo \nFormat : AVC  \nFormat profile : &lt;a class=&quot;__cf_email__&quot; href=&quot;/cdn-cgi/l/email-protection&quot; data-cfemail=&quot;4d05242a250d0179637c&quot;&gt;[email&amp;#160;protected]&lt;/a&gt;&lt;script cf-hash='f9e31' type=&quot;text/javascript&quot;&gt;\n/* &lt;![CDATA[ */!function(){try{var t=&quot;currentScript&quot;in document?document.currentScript:function(){for(var t=document.getElementsByTagName(&quot;script&quot;),e=t.length;e--;)if(t[e].getAttribute(&quot;cf-hash&quot;))return t[e]}();if(t&amp;&amp;t.previousSibling){var e,r,n,i,c=t.previousSibling,a=c.getAttribute(&quot;data-cfemail&quot;);if(a){for(e=&quot;&quot;,r=parseInt(a.substr(0,2),16),n=2;a.length-n;n+=2)i=parseInt(a.substr(n,2),16)^r,e+=String.fromCharCode(i);e=document.createTextNode(e),c.parentNode.replaceChild(e,c)}}}catch(u){}}();/* ]]&gt; */&lt;/script&gt; \nFormat settings, CABAC : Yes \nFormat settings, ReFrames : 11 frames\nDuration : 20mn 44s \nBit rate : 452 Kbps \nWidth : 1 280 pixels \nHeight : 720 pixels \nDisplay aspect ratio : 16:9 \nFrame rate : 29.970 fps \nStream size : 67.0 MiB (87%) \nTitle : One Piece - 631 [HD 720p] [ENG SUBBED] [GWC] \nLanguage : English \nDefault : Yes \nForced : No \n\nAudio \nFormat : Vorbis \nDuration : 20mn 44s \nBit rate mode : Variable \nChannel(s) : 2 channels \nSampling rate : 44.1 KHz \nStream size : 8.31 MiB (11%) \nWriting library : aoTuV 20110424\nLanguage : Japanese \n\nText \nFormat : UTF-8 \nCodec ID/Info : UTF-8 Plain Text \nTitle : [GWC] \nLanguage : English ","torrent":{"xt":"urn:btih:502a2ebc97cafc1dc930c5820c10c5537748990a","amp;dn":"One+Piece+-+631+%5BHD+720p%5D+%5BENG+SUBBED%5D+%5BGWC%5D.mkv","amp;tr":["udp%3A%2F%2Ftracker.openbittorrent.com%3A80","udp%3A%2F%2Fopen.demonii.com%3A1337","udp%3A%2F%2Ftracker.coppersurfer.tk%3A6969","udp%3A%2F%2Fexodus.desync.com%3A6969"],"infoHash":"502a2ebc97cafc1dc930c5820c10c5537748990a","infoHashBuffer":{"type":"Buffer","data":[80,42,46,188,151,202,252,29,201,48,197,130,12,16,197,83,119,72,153,10]},"announce":[],"urlList":[]}}